<svg width="861" height="512" viewBox="0 0 861 512" fill="none" xmlns="http://www.w3.org/2000/svg">
<g filter="url(#filter0_f_140_6026)">
<ellipse cx="430.438" cy="489.734" rx="386.07" ry="4.26597" fill="black"/>
</g>
<path d="M111.613 1H751.819C766.731 1 778.819 13.0883 778.819 28V468.67C778.819 470.327 777.476 471.67 775.819 471.67H87.6133C85.9565 471.67 84.6134 470.327 84.6133 468.67V28C84.6133 13.0883 96.7016 1 111.613 1Z" fill="#262626" stroke="#D3D3D3" stroke-width="2"/>
<path d="M87.877 26.2666C87.877 14.1164 97.7267 4.2666 109.877 4.2666H753.551C765.702 4.2666 775.552 14.1163 775.552 26.2666V454.753H87.877V26.2666Z" fill="#000003"/>
<path d="M401.177 458.254H402.229L404.7 464.291H404.785L407.257 458.254H408.308V465.526H407.484V460.001H407.413L405.14 465.526H404.345L402.072 460.001H402.001V465.526H401.177V458.254ZM411.565 465.654C411.22 465.654 410.906 465.589 410.624 465.459C410.343 465.326 410.119 465.136 409.953 464.887C409.787 464.636 409.705 464.333 409.705 463.978C409.705 463.666 409.766 463.412 409.889 463.218C410.012 463.022 410.177 462.868 410.383 462.756C410.589 462.645 410.816 462.562 411.065 462.508C411.316 462.451 411.568 462.406 411.821 462.373C412.152 462.33 412.421 462.298 412.627 462.277C412.835 462.253 412.987 462.214 413.082 462.16C413.179 462.105 413.227 462.011 413.227 461.876V461.847C413.227 461.497 413.131 461.225 412.94 461.031C412.75 460.836 412.463 460.739 412.077 460.739C411.677 460.739 411.363 460.827 411.136 461.002C410.908 461.177 410.749 461.364 410.656 461.563L409.861 461.279C410.003 460.948 410.192 460.69 410.429 460.505C410.668 460.318 410.929 460.188 411.21 460.114C411.494 460.039 411.774 460.001 412.048 460.001C412.224 460.001 412.425 460.022 412.652 460.065C412.882 460.105 413.103 460.189 413.316 460.317C413.532 460.445 413.71 460.638 413.852 460.896C413.994 461.154 414.065 461.499 414.065 461.933V465.526H413.227V464.788H413.185C413.128 464.906 413.033 465.033 412.901 465.168C412.768 465.303 412.592 465.417 412.371 465.512C412.151 465.607 411.883 465.654 411.565 465.654ZM411.693 464.901C412.025 464.901 412.304 464.836 412.531 464.706C412.761 464.576 412.934 464.408 413.05 464.202C413.168 463.996 413.227 463.779 413.227 463.552V462.785C413.192 462.828 413.114 462.867 412.993 462.902C412.875 462.935 412.737 462.965 412.581 462.991C412.427 463.015 412.277 463.036 412.13 463.055C411.986 463.071 411.868 463.086 411.778 463.097C411.561 463.126 411.357 463.172 411.168 463.236C410.981 463.297 410.829 463.391 410.713 463.516C410.599 463.64 410.543 463.808 410.543 464.021C410.543 464.312 410.65 464.532 410.866 464.681C411.084 464.828 411.359 464.901 411.693 464.901ZM417.811 465.64C417.3 465.64 416.859 465.519 416.49 465.278C416.121 465.036 415.836 464.704 415.638 464.28C415.439 463.856 415.339 463.372 415.339 462.828C415.339 462.274 415.441 461.785 415.645 461.361C415.851 460.935 416.137 460.602 416.504 460.363C416.873 460.122 417.304 460.001 417.797 460.001C418.18 460.001 418.526 460.072 418.834 460.214C419.141 460.356 419.394 460.555 419.59 460.81C419.787 461.066 419.908 461.364 419.956 461.705H419.118C419.054 461.457 418.912 461.237 418.692 461.045C418.474 460.851 418.18 460.754 417.811 460.754C417.484 460.754 417.198 460.839 416.952 461.009C416.708 461.177 416.517 461.415 416.38 461.723C416.245 462.028 416.177 462.387 416.177 462.799C416.177 463.22 416.244 463.587 416.376 463.9C416.511 464.212 416.701 464.455 416.944 464.628C417.191 464.801 417.479 464.887 417.811 464.887C418.029 464.887 418.226 464.849 418.404 464.774C418.582 464.698 418.732 464.589 418.855 464.447C418.978 464.305 419.066 464.134 419.118 463.935H419.956C419.908 464.257 419.791 464.547 419.604 464.805C419.42 465.061 419.175 465.265 418.869 465.416C418.566 465.565 418.213 465.64 417.811 465.64ZM421.295 465.526V458.254H422.133V460.938H422.204C422.265 460.844 422.35 460.723 422.459 460.576C422.571 460.427 422.729 460.294 422.935 460.178C423.144 460.06 423.425 460.001 423.78 460.001C424.24 460.001 424.644 460.116 424.995 460.345C425.345 460.575 425.619 460.9 425.815 461.322C426.012 461.743 426.11 462.24 426.11 462.813C426.11 463.391 426.012 463.892 425.815 464.315C425.619 464.737 425.346 465.064 424.998 465.296C424.65 465.525 424.249 465.64 423.795 465.64C423.444 465.64 423.164 465.582 422.953 465.466C422.742 465.348 422.58 465.214 422.466 465.065C422.353 464.913 422.265 464.788 422.204 464.688H422.104V465.526H421.295ZM422.118 462.799C422.118 463.211 422.179 463.574 422.3 463.889C422.42 464.202 422.597 464.447 422.829 464.624C423.061 464.8 423.345 464.887 423.681 464.887C424.031 464.887 424.324 464.795 424.558 464.61C424.795 464.423 424.972 464.172 425.091 463.857C425.211 463.54 425.272 463.187 425.272 462.799C425.272 462.416 425.213 462.07 425.094 461.762C424.978 461.452 424.802 461.207 424.565 461.027C424.331 460.845 424.036 460.754 423.681 460.754C423.34 460.754 423.054 460.84 422.822 461.013C422.59 461.183 422.414 461.422 422.296 461.73C422.178 462.036 422.118 462.392 422.118 462.799ZM429.608 465.64C429.115 465.64 428.683 465.523 428.312 465.288C427.942 465.054 427.653 464.726 427.445 464.305C427.239 463.883 427.136 463.391 427.136 462.828C427.136 462.259 427.239 461.763 427.445 461.34C427.653 460.916 427.942 460.587 428.312 460.352C428.683 460.118 429.115 460.001 429.608 460.001C430.1 460.001 430.531 460.118 430.9 460.352C431.272 460.587 431.561 460.916 431.767 461.34C431.975 461.763 432.079 462.259 432.079 462.828C432.079 463.391 431.975 463.883 431.767 464.305C431.561 464.726 431.272 465.054 430.9 465.288C430.531 465.523 430.1 465.64 429.608 465.64ZM429.608 464.887C429.982 464.887 430.29 464.791 430.531 464.6C430.773 464.408 430.951 464.156 431.067 463.843C431.183 463.531 431.241 463.192 431.241 462.828C431.241 462.463 431.183 462.123 431.067 461.808C430.951 461.493 430.773 461.239 430.531 461.045C430.29 460.851 429.982 460.754 429.608 460.754C429.234 460.754 428.926 460.851 428.685 461.045C428.443 461.239 428.264 461.493 428.148 461.808C428.032 462.123 427.974 462.463 427.974 462.828C427.974 463.192 428.032 463.531 428.148 463.843C428.264 464.156 428.443 464.408 428.685 464.6C428.926 464.791 429.234 464.887 429.608 464.887ZM435.575 465.64C435.082 465.64 434.65 465.523 434.278 465.288C433.909 465.054 433.62 464.726 433.412 464.305C433.206 463.883 433.103 463.391 433.103 462.828C433.103 462.259 433.206 461.763 433.412 461.34C433.62 460.916 433.909 460.587 434.278 460.352C434.65 460.118 435.082 460.001 435.575 460.001C436.067 460.001 436.498 460.118 436.867 460.352C437.239 460.587 437.528 460.916 437.734 461.34C437.942 461.763 438.046 462.259 438.046 462.828C438.046 463.391 437.942 463.883 437.734 464.305C437.528 464.726 437.239 465.054 436.867 465.288C436.498 465.523 436.067 465.64 435.575 465.64ZM435.575 464.887C435.949 464.887 436.256 464.791 436.498 464.6C436.739 464.408 436.918 464.156 437.034 463.843C437.15 463.531 437.208 463.192 437.208 462.828C437.208 462.463 437.15 462.123 437.034 461.808C436.918 461.493 436.739 461.239 436.498 461.045C436.256 460.851 435.949 460.754 435.575 460.754C435.201 460.754 434.893 460.851 434.651 461.045C434.41 461.239 434.231 461.493 434.115 461.808C433.999 462.123 433.941 462.463 433.941 462.828C433.941 463.192 433.999 463.531 434.115 463.843C434.231 464.156 434.41 464.408 434.651 464.6C434.893 464.791 435.201 464.887 435.575 464.887ZM440.107 463.538L440.093 462.501H440.263L442.649 460.072H443.686L441.144 462.643H441.073L440.107 463.538ZM439.325 465.526V458.254H440.164V465.526H439.325ZM442.791 465.526L440.661 462.828L441.257 462.245L443.857 465.526H442.791ZM447.989 465.526H447.066L449.737 458.254H450.646L453.316 465.526H452.393L450.219 459.404H450.163L447.989 465.526ZM448.33 462.685H452.052V463.467H448.33V462.685ZM454.394 465.526V460.072H455.232V465.526H454.394ZM454.82 459.163C454.657 459.163 454.516 459.107 454.397 458.996C454.281 458.885 454.223 458.751 454.223 458.595C454.223 458.438 454.281 458.305 454.397 458.193C454.516 458.082 454.657 458.026 454.82 458.026C454.983 458.026 455.123 458.082 455.239 458.193C455.357 458.305 455.417 458.438 455.417 458.595C455.417 458.751 455.357 458.885 455.239 458.996C455.123 459.107 454.983 459.163 454.82 459.163ZM456.767 465.526V460.072H457.577V460.896H457.633C457.733 460.626 457.913 460.407 458.173 460.239C458.434 460.071 458.727 459.987 459.054 459.987C459.115 459.987 459.192 459.988 459.285 459.99C459.377 459.993 459.447 459.996 459.494 460.001V460.853C459.466 460.846 459.401 460.835 459.299 460.821C459.199 460.805 459.094 460.796 458.983 460.796C458.718 460.796 458.481 460.852 458.273 460.963C458.067 461.072 457.903 461.224 457.783 461.418C457.664 461.609 457.605 461.828 457.605 462.075V465.526H456.767Z" fill="#A0AEC0"/>
<path d="M0 471.257C0 470.152 0.89543 469.257 2 469.257H858.02C859.124 469.257 860.02 470.152 860.02 471.257V474.376H0V471.257Z" fill="#A3ACB1"/>
<path d="M0 471.257C0 470.152 0.89543 469.257 2 469.257H858.02C859.124 469.257 860.02 470.152 860.02 471.257V474.376H0V471.257Z" fill="url(#paint0_linear_140_6026)"/>
<path d="M0 474.376H860.02L848.401 476.719C822.368 481.97 795.877 484.614 769.321 484.614H89.9814C60.7965 484.614 31.6992 481.42 3.2092 475.089L0 474.376Z" fill="#647279"/>
<path d="M0 474.376H860.02L848.401 476.719C822.368 481.97 795.877 484.614 769.321 484.614H89.9814C60.7965 484.614 31.6992 481.42 3.2092 475.089L0 474.376Z" fill="url(#paint1_linear_140_6026)"/>
<path fill-rule="evenodd" clip-rule="evenodd" d="M366.902 469.257C367.341 472.116 365.212 474.376 371.994 474.376H488.881C495.663 474.376 493.533 472.116 493.972 469.257H366.902Z" fill="#96A1A8"/>
<path fill-rule="evenodd" clip-rule="evenodd" d="M366.902 469.257C367.341 472.116 365.212 474.376 371.994 474.376H488.881C495.663 474.376 493.533 472.116 493.972 469.257H366.902Z" fill="url(#paint2_linear_140_6026)"/>
<defs>
<filter id="filter0_f_140_6026" x="26.3672" y="467.468" width="808.141" height="44.5322" filterUnits="userSpaceOnUse" color-interpolation-filters="sRGB">
<feFlood flood-opacity="0" result="BackgroundImageFix"/>
<feBlend mode="normal" in="SourceGraphic" in2="BackgroundImageFix" result="shape"/>
<feGaussianBlur stdDeviation="9" result="effect1_foregroundBlur_140_6026"/>
</filter>
<linearGradient id="paint0_linear_140_6026" x1="-1.65906e-10" y1="471.816" x2="860.02" y2="471.816" gradientUnits="userSpaceOnUse">
<stop stop-color="#0D1012"/>
<stop offset="0.0295345" stop-color="#CAD4DB"/>
<stop offset="0.0625" stop-color="#242729"/>
<stop offset="0.133609" stop-color="#A3ACB1"/>
<stop offset="0.865967" stop-color="#A3ACB1"/>
<stop offset="0.941937" stop-color="#242729"/>
<stop offset="0.971275" stop-color="#CAD4DB"/>
<stop offset="0.996436" stop-color="#0D1012"/>
</linearGradient>
<linearGradient id="paint1_linear_140_6026" x1="430.01" y1="474.376" x2="430.01" y2="484.614" gradientUnits="userSpaceOnUse">
<stop stop-color="#7A7F83"/>
<stop offset="1" stop-color="#0B0B0E"/>
</linearGradient>
<linearGradient id="paint2_linear_140_6026" x1="373.273" y1="472.365" x2="490.161" y2="472.365" gradientUnits="userSpaceOnUse">
<stop stop-color="#3C3C3C"/>
<stop offset="0.317518" stop-color="#3C3C3C" stop-opacity="0"/>
<stop offset="0.660584" stop-color="#3C3C3C" stop-opacity="0"/>
<stop offset="1" stop-color="#444444"/>
</linearGradient>
</defs>
</svg>
